<svg width="849" height="8" viewBox="0 0 849 8" fill="none" xmlns="http://www.w3.org/2000/svg">
<line y1="-0.5" x2="9.59639" y2="-0.5" transform="matrix(0.688749 -0.724999 -0.724999 -0.688749 431.609 6.95728)" stroke="#C4C4C4"/>
<line y1="-0.5" x2="9.59639" y2="-0.5" transform="matrix(0.688749 -0.724999 -0.724999 -0.688749 444.83 6.95728)" stroke="#C4C4C4"/>
<line y1="-0.5" x2="9.83922" y2="-0.5" transform="matrix(0.707107 0.707107 0.707107 -0.707107 438.217 0)" stroke="#C4C4C4"/>
<line y1="-0.5" x2="9.59639" y2="-0.5" transform="matrix(0.688749 -0.724999 -0.724999 -0.688749 458.047 6.95728)" stroke="#C4C4C4"/>
<line y1="-0.5" x2="9.59639" y2="-0.5" transform="matrix(0.688749 -0.724999 -0.724999 -0.688749 471.268 6.95728)" stroke="#C4C4C4"/>
<line y1="-0.5" x2="9.83922" y2="-0.5" transform="matrix(0.707107 0.707107 0.707107 -0.707107 464.656 0)" stroke="#C4C4C4"/>
<line y1="-0.5" x2="9.83922" y2="-0.5" transform="matrix(0.707107 0.707107 0.707107 -0.707107 425 0)" stroke="#C4C4C4"/>
<line y1="-0.5" x2="9.83922" y2="-0.5" transform="matrix(0.707107 0.707107 0.707107 -0.707107 451.439 0)" stroke="#C4C4C4"/>
<line y1="-0.5" x2="9.59639" y2="-0.5" transform="matrix(0.688749 -0.724999 -0.724999 -0.688749 537.359 6.95728)" stroke="#C4C4C4"/>
<line y1="-0.5" x2="9.59639" y2="-0.5" transform="matrix(0.688749 -0.724999 -0.724999 -0.688749 550.582 6.95728)" stroke="#C4C4C4"/>
<line y1="-0.5" x2="9.83922" y2="-0.5" transform="matrix(0.707107 0.707107 0.707107 -0.707107 543.971 0)" stroke="#C4C4C4"/>
<line y1="-0.5" x2="9.59639" y2="-0.5" transform="matrix(0.688749 -0.724999 -0.724999 -0.688749 563.799 6.95728)" stroke="#C4C4C4"/>
<line y1="-0.5" x2="9.59639" y2="-0.5" transform="matrix(0.688749 -0.724999 -0.724999 -0.688749 577.018 6.95728)" stroke="#C4C4C4"/>
<line y1="-0.5" x2="9.83922" y2="-0.5" transform="matrix(0.707107 0.707107 0.707107 -0.707107 570.41 0)" stroke="#C4C4C4"/>
<line y1="-0.5" x2="9.83922" y2="-0.5" transform="matrix(0.707107 0.707107 0.707107 -0.707107 530.754 0)" stroke="#C4C4C4"/>
<line y1="-0.5" x2="9.83922" y2="-0.5" transform="matrix(0.707107 0.707107 0.707107 -0.707107 557.189 0)" stroke="#C4C4C4"/>
<line y1="-0.5" x2="9.59639" y2="-0.5" transform="matrix(0.688749 -0.724999 -0.724999 -0.688749 484.486 6.95728)" stroke="#C4C4C4"/>
<line y1="-0.5" x2="9.59639" y2="-0.5" transform="matrix(0.688749 -0.724999 -0.724999 -0.688749 497.703 6.95728)" stroke="#C4C4C4"/>
<line y1="-0.5" x2="9.83922" y2="-0.5" transform="matrix(0.707107 0.707107 0.707107 -0.707107 491.096 0)" stroke="#C4C4C4"/>
<line y1="-0.5" x2="9.59639" y2="-0.5" transform="matrix(0.688749 -0.724999 -0.724999 -0.688749 510.924 6.95728)" stroke="#C4C4C4"/>
<line y1="-0.5" x2="9.59639" y2="-0.5" transform="matrix(0.688749 -0.724999 -0.724999 -0.688749 524.143 6.95728)" stroke="#C4C4C4"/>
<line y1="-0.5" x2="9.83922" y2="-0.5" transform="matrix(0.707107 0.707107 0.707107 -0.707107 517.533 0)" stroke="#C4C4C4"/>
<line y1="-0.5" x2="9.83922" y2="-0.5" transform="matrix(0.707107 0.707107 0.707107 -0.707107 477.875 0)" stroke="#C4C4C4"/>
<line y1="-0.5" x2="9.83922" y2="-0.5" transform="matrix(0.707107 0.707107 0.707107 -0.707107 504.314 0)" stroke="#C4C4C4"/>
<line y1="-0.5" x2="9.59639" y2="-0.5" transform="matrix(0.688749 -0.724999 -0.724999 -0.688749 590.24 6.95728)" stroke="#C4C4C4"/>
<line y1="-0.5" x2="9.59639" y2="-0.5" transform="matrix(0.688749 -0.724999 -0.724999 -0.688749 603.457 6.95728)" stroke="#C4C4C4"/>
<line y1="-0.5" x2="9.83922" y2="-0.5" transform="matrix(0.707107 0.707107 0.707107 -0.707107 596.846 0)" stroke="#C4C4C4"/>
<line y1="-0.5" x2="9.59639" y2="-0.5" transform="matrix(0.688749 -0.724999 -0.724999 -0.688749 616.674 6.95728)" stroke="#C4C4C4"/>
<line y1="-0.5" x2="9.59639" y2="-0.5" transform="matrix(0.688749 -0.724999 -0.724999 -0.688749 629.896 6.95728)" stroke="#C4C4C4"/>
<line y1="-0.5" x2="9.83922" y2="-0.5" transform="matrix(0.707107 0.707107 0.707107 -0.707107 623.285 0)" stroke="#C4C4C4"/>
<line y1="-0.5" x2="9.83922" y2="-0.5" transform="matrix(0.707107 0.707107 0.707107 -0.707107 583.629 0)" stroke="#C4C4C4"/>
<line y1="-0.5" x2="9.83922" y2="-0.5" transform="matrix(0.707107 0.707107 0.707107 -0.707107 610.066 0)" stroke="#C4C4C4"/>
<line y1="-0.5" x2="9.59639" y2="-0.5" transform="matrix(0.688749 -0.724999 -0.724999 -0.688749 695.99 6.95728)" stroke="#C4C4C4"/>
<line y1="-0.5" x2="9.59639" y2="-0.5" transform="matrix(0.688749 -0.724999 -0.724999 -0.688749 709.209 6.95728)" stroke="#C4C4C4"/>
<line y1="-0.5" x2="9.83922" y2="-0.5" transform="matrix(0.707107 0.707107 0.707107 -0.707107 702.6 0)" stroke="#C4C4C4"/>
<line y1="-0.5" x2="9.59639" y2="-0.5" transform="matrix(0.688749 -0.724999 -0.724999 -0.688749 722.428 6.95728)" stroke="#C4C4C4"/>
<line y1="-0.5" x2="9.59639" y2="-0.5" transform="matrix(0.688749 -0.724999 -0.724999 -0.688749 735.646 6.95728)" stroke="#C4C4C4"/>
<line y1="-0.5" x2="9.83922" y2="-0.5" transform="matrix(0.707107 0.707107 0.707107 -0.707107 729.039 0)" stroke="#C4C4C4"/>
<line y1="-0.5" x2="9.83922" y2="-0.5" transform="matrix(0.707107 0.707107 0.707107 -0.707107 689.381 0)" stroke="#C4C4C4"/>
<line y1="-0.5" x2="9.83922" y2="-0.5" transform="matrix(0.707107 0.707107 0.707107 -0.707107 715.816 0)" stroke="#C4C4C4"/>
<line y1="-0.5" x2="9.59639" y2="-0.5" transform="matrix(0.688749 -0.724999 -0.724999 -0.688749 643.113 6.95728)" stroke="#C4C4C4"/>
<line y1="-0.5" x2="9.59639" y2="-0.5" transform="matrix(0.688749 -0.724999 -0.724999 -0.688749 656.332 6.95728)" stroke="#C4C4C4"/>
<line y1="-0.5" x2="9.83922" y2="-0.5" transform="matrix(0.707107 0.707107 0.707107 -0.707107 649.723 0)" stroke="#C4C4C4"/>
<line y1="-0.5" x2="9.59639" y2="-0.5" transform="matrix(0.688749 -0.724999 -0.724999 -0.688749 669.553 6.95728)" stroke="#C4C4C4"/>
<line y1="-0.5" x2="9.59639" y2="-0.5" transform="matrix(0.688749 -0.724999 -0.724999 -0.688749 682.77 6.95728)" stroke="#C4C4C4"/>
<line y1="-0.5" x2="9.83922" y2="-0.5" transform="matrix(0.707107 0.707107 0.707107 -0.707107 676.16 0)" stroke="#C4C4C4"/>
<line y1="-0.5" x2="9.83922" y2="-0.5" transform="matrix(0.707107 0.707107 0.707107 -0.707107 636.504 0)" stroke="#C4C4C4"/>
<line y1="-0.5" x2="9.83922" y2="-0.5" transform="matrix(0.707107 0.707107 0.707107 -0.707107 662.943 0)" stroke="#C4C4C4"/>
<line y1="-0.5" x2="9.59639" y2="-0.5" transform="matrix(0.688749 -0.724999 -0.724999 -0.688749 775.098 6.95728)" stroke="#C4C4C4"/>
<line y1="-0.5" x2="9.59639" y2="-0.5" transform="matrix(0.688749 -0.724999 -0.724999 -0.688749 788.316 6.95728)" stroke="#C4C4C4"/>
<line y1="-0.5" x2="9.83922" y2="-0.5" transform="matrix(0.707107 0.707107 0.707107 -0.707107 781.707 0)" stroke="#C4C4C4"/>
<line y1="-0.5" x2="9.59639" y2="-0.5" transform="matrix(0.688749 -0.724999 -0.724999 -0.688749 801.535 6.95728)" stroke="#C4C4C4"/>
<line y1="-0.5" x2="9.59639" y2="-0.5" transform="matrix(0.688749 -0.724999 -0.724999 -0.688749 814.754 6.95728)" stroke="#C4C4C4"/>
<line y1="-0.5" x2="9.83922" y2="-0.5" transform="matrix(0.707107 0.707107 0.707107 -0.707107 808.145 0)" stroke="#C4C4C4"/>
<line y1="-0.5" x2="9.83922" y2="-0.5" transform="matrix(0.707107 0.707107 0.707107 -0.707107 768.488 0)" stroke="#C4C4C4"/>
<line y1="-0.5" x2="9.83922" y2="-0.5" transform="matrix(0.707107 0.707107 0.707107 -0.707107 794.924 0)" stroke="#C4C4C4"/>
<line y1="-0.5" x2="9.59639" y2="-0.5" transform="matrix(0.688749 -0.724999 -0.724999 -0.688749 828.172 6.95728)" stroke="#C4C4C4"/>
<line y1="-0.5" x2="9.59639" y2="-0.5" transform="matrix(0.688749 -0.724999 -0.724999 -0.688749 841.391 6.95728)" stroke="#C4C4C4"/>
<line y1="-0.5" x2="9.83922" y2="-0.5" transform="matrix(0.707107 0.707107 0.707107 -0.707107 834.783 0)" stroke="#C4C4C4"/>
<line y1="-0.5" x2="9.83922" y2="-0.5" transform="matrix(0.707107 0.707107 0.707107 -0.707107 821.561 0)" stroke="#C4C4C4"/>
<line y1="-0.5" x2="9.59639" y2="-0.5" transform="matrix(0.688749 -0.724999 -0.724999 -0.688749 748.66 6.95728)" stroke="#C4C4C4"/>
<line y1="-0.5" x2="9.59639" y2="-0.5" transform="matrix(0.688749 -0.724999 -0.724999 -0.688749 761.877 6.95728)" stroke="#C4C4C4"/>
<line y1="-0.5" x2="9.83922" y2="-0.5" transform="matrix(0.707107 0.707107 0.707107 -0.707107 755.268 0)" stroke="#C4C4C4"/>
<line y1="-0.5" x2="9.83922" y2="-0.5" transform="matrix(0.707107 0.707107 0.707107 -0.707107 742.051 0)" stroke="#C4C4C4"/>
<line y1="-0.5" x2="9.59639" y2="-0.5" transform="matrix(0.688749 -0.724999 -0.724999 -0.688749 7.60938 6.95728)" stroke="#C4C4C4"/>
<line y1="-0.5" x2="9.59639" y2="-0.5" transform="matrix(0.688749 -0.724999 -0.724999 -0.688749 20.8301 6.95728)" stroke="#C4C4C4"/>
<line y1="-0.5" x2="9.83922" y2="-0.5" transform="matrix(0.707107 0.707107 0.707107 -0.707107 14.2168 0)" stroke="#C4C4C4"/>
<line y1="-0.5" x2="9.59639" y2="-0.5" transform="matrix(0.688749 -0.724999 -0.724999 -0.688749 34.0469 6.95728)" stroke="#C4C4C4"/>
<line y1="-0.5" x2="9.59639" y2="-0.5" transform="matrix(0.688749 -0.724999 -0.724999 -0.688749 47.2676 6.95728)" stroke="#C4C4C4"/>
<line y1="-0.5" x2="9.83922" y2="-0.5" transform="matrix(0.707107 0.707107 0.707107 -0.707107 40.6562 0)" stroke="#C4C4C4"/>
<line y1="-0.5" x2="9.83922" y2="-0.5" transform="matrix(0.707107 0.707107 0.707107 -0.707107 1 0)" stroke="#C4C4C4"/>
<line y1="-0.5" x2="9.83922" y2="-0.5" transform="matrix(0.707107 0.707107 0.707107 -0.707107 27.4395 0)" stroke="#C4C4C4"/>
<line y1="-0.5" x2="9.59639" y2="-0.5" transform="matrix(0.688749 -0.724999 -0.724999 -0.688749 113.359 6.95728)" stroke="#C4C4C4"/>
<line y1="-0.5" x2="9.59639" y2="-0.5" transform="matrix(0.688749 -0.724999 -0.724999 -0.688749 126.582 6.95728)" stroke="#C4C4C4"/>
<line y1="-0.5" x2="9.83922" y2="-0.5" transform="matrix(0.707107 0.707107 0.707107 -0.707107 119.971 0)" stroke="#C4C4C4"/>
<line y1="-0.5" x2="9.59639" y2="-0.5" transform="matrix(0.688749 -0.724999 -0.724999 -0.688749 139.799 6.95728)" stroke="#C4C4C4"/>
<line y1="-0.5" x2="9.59639" y2="-0.5" transform="matrix(0.688749 -0.724999 -0.724999 -0.688749 153.018 6.95728)" stroke="#C4C4C4"/>
<line y1="-0.5" x2="9.83922" y2="-0.5" transform="matrix(0.707107 0.707107 0.707107 -0.707107 146.41 0)" stroke="#C4C4C4"/>
<line y1="-0.5" x2="9.83922" y2="-0.5" transform="matrix(0.707107 0.707107 0.707107 -0.707107 106.754 0)" stroke="#C4C4C4"/>
<line y1="-0.5" x2="9.83922" y2="-0.5" transform="matrix(0.707107 0.707107 0.707107 -0.707107 133.189 0)" stroke="#C4C4C4"/>
<line y1="-0.5" x2="9.59639" y2="-0.5" transform="matrix(0.688749 -0.724999 -0.724999 -0.688749 60.4863 6.95728)" stroke="#C4C4C4"/>
<line y1="-0.5" x2="9.59639" y2="-0.5" transform="matrix(0.688749 -0.724999 -0.724999 -0.688749 73.7031 6.95728)" stroke="#C4C4C4"/>
<line y1="-0.5" x2="9.83922" y2="-0.5" transform="matrix(0.707107 0.707107 0.707107 -0.707107 67.0957 0)" stroke="#C4C4C4"/>
<line y1="-0.5" x2="9.59639" y2="-0.5" transform="matrix(0.688749 -0.724999 -0.724999 -0.688749 86.9238 6.95728)" stroke="#C4C4C4"/>
<line y1="-0.5" x2="9.59639" y2="-0.5" transform="matrix(0.688749 -0.724999 -0.724999 -0.688749 100.143 6.95728)" stroke="#C4C4C4"/>
<line y1="-0.5" x2="9.83922" y2="-0.5" transform="matrix(0.707107 0.707107 0.707107 -0.707107 93.5332 0)" stroke="#C4C4C4"/>
<line y1="-0.5" x2="9.83922" y2="-0.5" transform="matrix(0.707107 0.707107 0.707107 -0.707107 53.875 0)" stroke="#C4C4C4"/>
<line y1="-0.5" x2="9.83922" y2="-0.5" transform="matrix(0.707107 0.707107 0.707107 -0.707107 80.3145 0)" stroke="#C4C4C4"/>
<line y1="-0.5" x2="9.59639" y2="-0.5" transform="matrix(0.688749 -0.724999 -0.724999 -0.688749 166.24 6.95728)" stroke="#C4C4C4"/>
<line y1="-0.5" x2="9.59639" y2="-0.5" transform="matrix(0.688749 -0.724999 -0.724999 -0.688749 179.457 6.95728)" stroke="#C4C4C4"/>
<line y1="-0.5" x2="9.83922" y2="-0.5" transform="matrix(0.707107 0.707107 0.707107 -0.707107 172.846 0)" stroke="#C4C4C4"/>
<line y1="-0.5" x2="9.59639" y2="-0.5" transform="matrix(0.688749 -0.724999 -0.724999 -0.688749 192.674 6.95728)" stroke="#C4C4C4"/>
<line y1="-0.5" x2="9.59639" y2="-0.5" transform="matrix(0.688749 -0.724999 -0.724999 -0.688749 205.896 6.95728)" stroke="#C4C4C4"/>
<line y1="-0.5" x2="9.83922" y2="-0.5" transform="matrix(0.707107 0.707107 0.707107 -0.707107 199.285 0)" stroke="#C4C4C4"/>
<line y1="-0.5" x2="9.83922" y2="-0.5" transform="matrix(0.707107 0.707107 0.707107 -0.707107 159.629 0)" stroke="#C4C4C4"/>
<line y1="-0.5" x2="9.83922" y2="-0.5" transform="matrix(0.707107 0.707107 0.707107 -0.707107 186.066 0)" stroke="#C4C4C4"/>
<line y1="-0.5" x2="9.59639" y2="-0.5" transform="matrix(0.688749 -0.724999 -0.724999 -0.688749 271.99 6.95728)" stroke="#C4C4C4"/>
<line y1="-0.5" x2="9.59639" y2="-0.5" transform="matrix(0.688749 -0.724999 -0.724999 -0.688749 285.209 6.95728)" stroke="#C4C4C4"/>
<line y1="-0.5" x2="9.83922" y2="-0.5" transform="matrix(0.707107 0.707107 0.707107 -0.707107 278.6 0)" stroke="#C4C4C4"/>
<line y1="-0.5" x2="9.59639" y2="-0.5" transform="matrix(0.688749 -0.724999 -0.724999 -0.688749 298.428 6.95728)" stroke="#C4C4C4"/>
<line y1="-0.5" x2="9.59639" y2="-0.5" transform="matrix(0.688749 -0.724999 -0.724999 -0.688749 311.646 6.95728)" stroke="#C4C4C4"/>
<line y1="-0.5" x2="9.83922" y2="-0.5" transform="matrix(0.707107 0.707107 0.707107 -0.707107 305.039 0)" stroke="#C4C4C4"/>
<line y1="-0.5" x2="9.83922" y2="-0.5" transform="matrix(0.707107 0.707107 0.707107 -0.707107 265.381 0)" stroke="#C4C4C4"/>
<line y1="-0.5" x2="9.83922" y2="-0.5" transform="matrix(0.707107 0.707107 0.707107 -0.707107 291.816 0)" stroke="#C4C4C4"/>
<line y1="-0.5" x2="9.59639" y2="-0.5" transform="matrix(0.688749 -0.724999 -0.724999 -0.688749 219.113 6.95728)" stroke="#C4C4C4"/>
<line y1="-0.5" x2="9.59639" y2="-0.5" transform="matrix(0.688749 -0.724999 -0.724999 -0.688749 232.332 6.95728)" stroke="#C4C4C4"/>
<line y1="-0.5" x2="9.83922" y2="-0.5" transform="matrix(0.707107 0.707107 0.707107 -0.707107 225.723 0)" stroke="#C4C4C4"/>
<line y1="-0.5" x2="9.59639" y2="-0.5" transform="matrix(0.688749 -0.724999 -0.724999 -0.688749 245.553 6.95728)" stroke="#C4C4C4"/>
<line y1="-0.5" x2="9.59639" y2="-0.5" transform="matrix(0.688749 -0.724999 -0.724999 -0.688749 258.77 6.95728)" stroke="#C4C4C4"/>
<line y1="-0.5" x2="9.83922" y2="-0.5" transform="matrix(0.707107 0.707107 0.707107 -0.707107 252.16 0)" stroke="#C4C4C4"/>
<line y1="-0.5" x2="9.83922" y2="-0.5" transform="matrix(0.707107 0.707107 0.707107 -0.707107 212.504 0)" stroke="#C4C4C4"/>
<line y1="-0.5" x2="9.83922" y2="-0.5" transform="matrix(0.707107 0.707107 0.707107 -0.707107 238.943 0)" stroke="#C4C4C4"/>
<line y1="-0.5" x2="9.59639" y2="-0.5" transform="matrix(0.688749 -0.724999 -0.724999 -0.688749 351.098 6.95728)" stroke="#C4C4C4"/>
<line y1="-0.5" x2="9.59639" y2="-0.5" transform="matrix(0.688749 -0.724999 -0.724999 -0.688749 364.316 6.95728)" stroke="#C4C4C4"/>
<line y1="-0.5" x2="9.83922" y2="-0.5" transform="matrix(0.707107 0.707107 0.707107 -0.707107 357.707 0)" stroke="#C4C4C4"/>
<line y1="-0.5" x2="9.59639" y2="-0.5" transform="matrix(0.688749 -0.724999 -0.724999 -0.688749 377.535 6.95728)" stroke="#C4C4C4"/>
<line y1="-0.5" x2="9.59639" y2="-0.5" transform="matrix(0.688749 -0.724999 -0.724999 -0.688749 390.754 6.95728)" stroke="#C4C4C4"/>
<line y1="-0.5" x2="9.83922" y2="-0.5" transform="matrix(0.707107 0.707107 0.707107 -0.707107 384.145 0)" stroke="#C4C4C4"/>
<line y1="-0.5" x2="9.83922" y2="-0.5" transform="matrix(0.707107 0.707107 0.707107 -0.707107 344.488 0)" stroke="#C4C4C4"/>
<line y1="-0.5" x2="9.83922" y2="-0.5" transform="matrix(0.707107 0.707107 0.707107 -0.707107 370.924 0)" stroke="#C4C4C4"/>
<line y1="-0.5" x2="9.59639" y2="-0.5" transform="matrix(0.688749 -0.724999 -0.724999 -0.688749 404.172 6.95728)" stroke="#C4C4C4"/>
<line y1="-0.5" x2="9.59639" y2="-0.5" transform="matrix(0.688749 -0.724999 -0.724999 -0.688749 417.391 6.95728)" stroke="#C4C4C4"/>
<line y1="-0.5" x2="9.83922" y2="-0.5" transform="matrix(0.707107 0.707107 0.707107 -0.707107 410.783 0)" stroke="#C4C4C4"/>
<line y1="-0.5" x2="9.83922" y2="-0.5" transform="matrix(0.707107 0.707107 0.707107 -0.707107 397.561 0)" stroke="#C4C4C4"/>
<line y1="-0.5" x2="9.59639" y2="-0.5" transform="matrix(0.688749 -0.724999 -0.724999 -0.688749 324.66 6.95728)" stroke="#C4C4C4"/>
<line y1="-0.5" x2="9.59639" y2="-0.5" transform="matrix(0.688749 -0.724999 -0.724999 -0.688749 337.877 6.95728)" stroke="#C4C4C4"/>
<line y1="-0.5" x2="9.83922" y2="-0.5" transform="matrix(0.707107 0.707107 0.707107 -0.707107 331.268 0)" stroke="#C4C4C4"/>
<line y1="-0.5" x2="9.83922" y2="-0.5" transform="matrix(0.707107 0.707107 0.707107 -0.707107 318.051 0)" stroke="#C4C4C4"/>
</svg>
